<?xml version="1.0" encoding="UTF-8"?>
<svg viewBox="0 0 1600 900" xmlns="http://www.w3.org/2000/svg">
  <!-- Background -->
  <rect width="1600" height="900" fill="#f5f5f7" />
  
  <!-- Title -->
  <text x="800" y="60" font-family="Arial, sans-serif" font-size="36" font-weight="bold" text-anchor="middle" fill="#333">Live Push Notification</text>
  
  <!-- Dashboard Images -->
  <g transform="translate(100, 100)">
    <!-- First Image - Left -->
    <rect x="0" y="0" width="400" height="700" rx="15" ry="15" fill="#fff" stroke="#ddd" stroke-width="2" />
    
    <!-- Header Bar -->
    <rect x="0" y="0" width="400" height="70" rx="15" ry="15" fill="#4169e1" />
    <text x="30" y="45" font-family="Arial, sans-serif" font-size="24" fill="white">@user123</text>
    <circle cx="370" cy="35" r="15" fill="white" opacity="0.8" />
    <path d="M370,25 L370,45 M360,35 L380,35" stroke="#4169e1" stroke-width="2" fill="none" />
    
    <!-- Date Select -->
    <rect x="20" y="90" width="360" height="60" rx="8" ry="8" fill="white" stroke="#ddd" stroke-width="2" />
    <text x="40" y="130" font-family="Arial, sans-serif" font-size="20" fill="#333">Pilih Tanggal: 04/04/2025 - 04/05/2025</text>
    <rect x="340" y="100" width="30" height="40" rx="4" ry="4" fill="#f0f0f0" stroke="#ddd" />
    <text x="350" y="125" font-family="Arial, sans-serif" font-size="20" fill="#666">📅</text>
    
    <!-- Duration Filter -->
    <rect x="20" y="170" width="360" height="60" rx="8" ry="8" fill="white" stroke="#ddd" stroke-width="2" />
    <text x="40" y="210" font-family="Arial, sans-serif" font-size="20" fill="#333">Durasi Live:</text>
    <circle cx="230" cy="200" r="15" fill="#e6e6ff" stroke="#4169e1" />
    <text x="230" y="207" font-family="Arial, sans-serif" font-size="16" text-anchor="middle" fill="#333">R</text>
    <circle cx="290" cy="200" r="15" fill="#b3b3ff" stroke="#4169e1" />
    <text x="290" y="207" font-family="Arial, sans-serif" font-size="16" text-anchor="middle" fill="#333">S</text>
    <circle cx="350" cy="200" r="15" fill="#4169e1" stroke="#4169e1" />
    <text x="350" y="207" font-family="Arial, sans-serif" font-size="16" text-anchor="middle" fill="white">T</text>
    
    <!-- Chart -->
    <rect x="20" y="250" width="360" height="200" rx="8" ry="8" fill="white" stroke="#ddd" stroke-width="2" />
    <text x="30" y="280" font-family="Arial, sans-serif" font-size="20" font-weight="bold" fill="#333">Grafik Durasi Live</text>
    
    <!-- Chart grid and axes -->
    <line x1="70" y1="300" x2="70" y2="420" stroke="#ddd" stroke-width="1" />
    <line x1="70" y1="420" x2="360" y2="420" stroke="#ddd" stroke-width="1" />
    <text x="40" y="320" font-family="Arial, sans-serif" font-size="14" text-anchor="end" fill="#666">2h</text>
    <text x="40" y="370" font-family="Arial, sans-serif" font-size="14" text-anchor="end" fill="#666">1h</text>
    <text x="40" y="420" font-family="Arial, sans-serif" font-size="14" text-anchor="end" fill="#666">0</text>
    
    <!-- Chart bars -->
    <rect x="120" y="330" width="30" height="90" fill="#4169e1" />
    <text x="135" y="435" font-family="Arial, sans-serif" font-size="12" text-anchor="middle" fill="#666">16:11</text>
    
    <rect x="220" y="380" width="30" height="40" fill="#4169e1" />
    <text x="235" y="435" font-family="Arial, sans-serif" font-size="12" text-anchor="middle" fill="#666">15:14</text>
    
    <rect x="320" y="410" width="30" height="10" fill="#4169e1" />
    <text x="335" y="435" font-family="Arial, sans-serif" font-size="12" text-anchor="middle" fill="#666">15:00</text>
    
    <!-- Stats -->
    <rect x="20" y="470" width="360" height="100" rx="8" ry="8" fill="white" stroke="#ddd" stroke-width="2" />
    <text x="30" y="500" font-family="Arial, sans-serif" font-size="20" font-weight="bold" fill="#333">Statistik untuk @user123</text>
    
    <rect x="30" y="510" width="340" height="50" rx="4" ry="4" fill="#f8f8f8" />
    <text x="40" y="540" font-family="Arial, sans-serif" font-size="18" fill="#333">Live Paling Lama</text>
    <text x="320" y="540" font-family="Arial, sans-serif" font-size="18" font-weight="bold" fill="#4169e1" text-anchor="end">1h 20m</text>
    
    <!-- Detail -->
    <rect x="20" y="590" width="360" height="100" rx="8" ry="8" fill="white" stroke="#ddd" stroke-width="2" />
    <text x="30" y="620" font-family="Arial, sans-serif" font-size="20" font-weight="bold" fill="#333">Detail Live Terakhir untuk @user123</text>
    
    <line x1="30" y1="640" x2="370" y2="640" stroke="#eee" stroke-width="2" />
    <text x="40" y="665" font-family="Arial, sans-serif" font-size="18" fill="#333">Tanggal</text>
    <text x="325" y="665" font-family="Arial, sans-serif" font-size="18" fill="#333" text-anchor="end">Durasi</text>
    
    <line x1="30" y1="680" x2="370" y2="680" stroke="#eee" stroke-width="2" />
    <text x="40" y="705" font-family="Arial, sans-serif" font-size="18" fill="#333">2025-04-04</text>
    <text x="325" y="705" font-family="Arial, sans-serif" font-size="18" fill="#4169e1" font-weight="bold" text-anchor="end">1h 20m</text>
  </g>
  
  <!-- Second Image - Center -->
  <g transform="translate(600, 100)">
    <!-- Calendar View -->
    <rect x="0" y="0" width="400" height="700" rx="15" ry="15" fill="#fff" stroke="#ddd" stroke-width="2" />
    
    <!-- Header Bar -->
    <rect x="0" y="0" width="400" height="70" rx="15" ry="15" fill="#4169e1" />
    <text x="30" y="45" font-family="Arial, sans-serif" font-size="24" fill="white">@user123</text>
    <circle cx="370" cy="35" r="15" fill="white" opacity="0.8" />
    <path d="M370,25 L370,45 M360,35 L380,35" stroke="#4169e1" stroke-width="2" fill="none" />
    
    <!-- Date Select -->
    <rect x="20" y="90" width="360" height="60" rx="8" ry="8" fill="white" stroke="#ddd" stroke-width="2" />
    <text x="40" y="130" font-family="Arial, sans-serif" font-size="20" fill="#333">Pilih Tanggal: 04/04/2025 - 04/05/2025</text>
    <rect x="340" y="100" width="30" height="40" rx="4" ry="4" fill="#f0f0f0" stroke="#ddd" />
    <text x="350" y="125" font-family="Arial, sans-serif" font-size="20" fill="#666">📅</text>
    
    <!-- Calendar Navigation -->
    <rect x="20" y="170" width="360" height="40" rx="8" ry="8" fill="white" stroke="#ddd" stroke-width="2" />
    <text x="200" y="197" font-family="Arial, sans-serif" font-size="20" font-weight="bold" text-anchor="middle" fill="#333">April 2025</text>
    <text x="40" y="197" font-family="Arial, sans-serif" font-size="20" fill="#666">&lt;</text>
    <text x="360" y="197" font-family="Arial, sans-serif" font-size="20" fill="#666">&gt;</text>
    
    <!-- Calendar Grid -->
    <rect x="20" y="220" width="360" height="300" rx="8" ry="8" fill="white" stroke="#ddd" stroke-width="2" />
    
    <!-- Days of week -->
    <text x="50" y="250" font-family="Arial, sans-serif" font-size="16" text-anchor="middle" fill="#666">Sun</text>
    <text x="100" y="250" font-family="Arial, sans-serif" font-size="16" text-anchor="middle" fill="#666">Mon</text>
    <text x="150" y="250" font-family="Arial, sans-serif" font-size="16" text-anchor="middle" fill="#666">Tue</text>
    <text x="200" y="250" font-family="Arial, sans-serif" font-size="16" text-anchor="middle" fill="#666">Wed</text>
    <text x="250" y="250" font-family="Arial, sans-serif" font-size="16" text-anchor="middle" fill="#666">Thu</text>
    <text x="300" y="250" font-family="Arial, sans-serif" font-size="16" text-anchor="middle" fill="#666">Fri</text>
    <text x="350" y="250" font-family="Arial, sans-serif" font-size="16" text-anchor="middle" fill="#666">Sat</text>
    
    <!-- Calendar Days - First row -->
    <text x="50" y="290" font-family="Arial, sans-serif" font-size="16" text-anchor="middle" fill="#aaa">30</text>
    <text x="100" y="290" font-family="Arial, sans-serif" font-size="16" text-anchor="middle" fill="#aaa">31</text>
    <text x="150" y="290" font-family="Arial, sans-serif" font-size="16" text-anchor="middle" fill="#333">1</text>
    <text x="200" y="290" font-family="Arial, sans-serif" font-size="16" text-anchor="middle" fill="#333">2</text>
    <text x="250" y="290" font-family="Arial, sans-serif" font-size="16" text-anchor="middle" fill="#333">3</text>
    
    <circle cx="300" cy="285" r="18" fill="#4169e1" />
    <text x="300" y="290" font-family="Arial, sans-serif" font-size="16" text-anchor="middle" fill="white">4</text>
    
    <circle cx="350" cy="285" r="18" fill="#b3b3ff" />
    <text x="350" y="290" font-family="Arial, sans-serif" font-size="16" text-anchor="middle" fill="#333">5</text>
    
    <!-- Calendar Days - Second row -->
    <text x="50" y="330" font-family="Arial, sans-serif" font-size="16" text-anchor="middle" fill="#333">6</text>
    <text x="100" y="330" font-family="Arial, sans-serif" font-size="16" text-anchor="middle" fill="#333">7</text>
    <text x="150" y="330" font-family="Arial, sans-serif" font-size="16" text-anchor="middle" fill="#333">8</text>
    <text x="200" y="330" font-family="Arial, sans-serif" font-size="16" text-anchor="middle" fill="#333">9</text>
    <text x="250" y="330" font-family="Arial, sans-serif" font-size="16" text-anchor="middle" fill="#333">10</text>
    <text x="300" y="330" font-family="Arial, sans-serif" font-size="16" text-anchor="middle" fill="#333">11</text>
    <text x="350" y="330" font-family="Arial, sans-serif" font-size="16" text-anchor="middle" fill="#333">12</text>
    
    <!-- Calendar Days - Third row -->
    <text x="50" y="370" font-family="Arial, sans-serif" font-size="16" text-anchor="middle" fill="#333">13</text>
    <text x="100" y="370" font-family="Arial, sans-serif" font-size="16" text-anchor="middle" fill="#333">14</text>
    <text x="150" y="370" font-family="Arial, sans-serif" font-size="16" text-anchor="middle" fill="#333">15</text>
    <text x="200" y="370" font-family="Arial, sans-serif" font-size="16" text-anchor="middle" fill="#333">16</text>
    <text x="250" y="370" font-family="Arial, sans-serif" font-size="16" text-anchor="middle" fill="#333">17</text>
    <text x="300" y="370" font-family="Arial, sans-serif" font-size="16" text-anchor="middle" fill="#333">18</text>
    <text x="350" y="370" font-family="Arial, sans-serif" font-size="16" text-anchor="middle" fill="#333">19</text>
    
    <!-- Calendar Days - Fourth row -->
    <text x="50" y="410" font-family="Arial, sans-serif" font-size="16" text-anchor="middle" fill="#333">20</text>
    <text x="100" y="410" font-family="Arial, sans-serif" font-size="16" text-anchor="middle" fill="#333">21</text>
    <text x="150" y="410" font-family="Arial, sans-serif" font-size="16" text-anchor="middle" fill="#333">22</text>
    <text x="200" y="410" font-family="Arial, sans-serif" font-size="16" text-anchor="middle" fill="#333">23</text>
    <text x="250" y="410" font-family="Arial, sans-serif" font-size="16" text-anchor="middle" fill="#333">24</text>
    <text x="300" y="410" font-family="Arial, sans-serif" font-size="16" text-anchor="middle" fill="#333">25</text>
    <text x="350" y="410" font-family="Arial, sans-serif" font-size="16" text-anchor="middle" fill="#333">26</text>
    
    <!-- Calendar Days - Fifth row -->
    <text x="50" y="450" font-family="Arial, sans-serif" font-size="16" text-anchor="middle" fill="#333">27</text>
    <text x="100" y="450" font-family="Arial, sans-serif" font-size="16" text-anchor="middle" fill="#333">28</text>
    <text x="150" y="450" font-family="Arial, sans-serif" font-size="16" text-anchor="middle" fill="#333">29</text>
    <text x="200" y="450" font-family="Arial, sans-serif" font-size="16" text-anchor="middle" fill="#333">30</text>
    <text x="250" y="450" font-family="Arial, sans-serif" font-size="16" text-anchor="middle" fill="#aaa">1</text>
    <text x="300" y="450" font-family="Arial, sans-serif" font-size="16" text-anchor="middle" fill="#aaa">2</text>
    <text x="350" y="450" font-family="Arial, sans-serif" font-size="16" text-anchor="middle" fill="#aaa">3</text>
    
    <!-- Duration Filter -->
    <rect x="20" y="540" width="360" height="60" rx="8" ry="8" fill="white" stroke="#ddd" stroke-width="2" />
    <text x="40" y="580" font-family="Arial, sans-serif" font-size="20" fill="#333">Durasi Live:</text>
    <circle cx="230" cy="570" r="15" fill="#e6e6ff" stroke="#4169e1" />
    <text x="230" y="577" font-family="Arial, sans-serif" font-size="16" text-anchor="middle" fill="#333">R</text>
    <circle cx="290" cy="570" r="15" fill="#b3b3ff" stroke="#4169e1" />
    <text x="290" y="577" font-family="Arial, sans-serif" font-size="16" text-anchor="middle" fill="#333">S</text>
    <circle cx="350" cy="570" r="15" fill="#4169e1" stroke="#4169e1" />
    <text x="350" y="577" font-family="Arial, sans-serif" font-size="16" text-anchor="middle" fill="white">T</text>
    
    <!-- Chart -->
    <rect x="20" y="620" width="360" height="70" rx="8" ry="8" fill="white" stroke="#ddd" stroke-width="2" />
    <text x="30" y="650" font-family="Arial, sans-serif" font-size="20" font-weight="bold" fill="#333">Grafik Durasi Live</text>
  </g>
  
  <!-- Third Image - Right -->
  <g transform="translate(1100, 100)">
    <!-- List View -->
    <rect x="0" y="0" width="400" height="700" rx="15" ry="15" fill="#fff" stroke="#ddd" stroke-width="2" />
    
    <!-- Header Bar -->
    <rect x="0" y="0" width="70" height="70" rx="15" ry="0" fill="#f5f5f7" />
    <text x="35" y="45" font-family="Arial, sans-serif" font-size="24" fill="#333">&lt;</text>
    
    <text x="200" y="45" font-family="Arial, sans-serif" font-size="24" font-weight="bold" text-anchor="middle" fill="#333">Daftar Live @user123</text>
    
    <!-- Live Sessions List -->
    <!-- Session 1 -->
    <rect x="20" y="90" width="360" height="110" rx="15" ry="15" fill="#f8f9fa" stroke="#eee" stroke-width="1" />
    <text x="60" y="130" font-family="Arial, sans-serif" font-size="20" font-weight="bold" fill="#333">Durasi: 0h 1m</text>
    <circle cx="35" cy="130" r="15" fill="#4682b4" opacity="0.8" />
    <text x="35" y="135" font-family="Arial, sans-serif" font-size="14" text-anchor="middle" fill="white">⏱️</text>
    
    <text x="60" y="160" font-family="Arial, sans-serif" font-size="18" fill="#666">Tanggal: 2025-04-05</text>
    <circle cx="35" cy="160" r="15" fill="#32cd32" opacity="0.8" />
    <text x="35" y="165" font-family="Arial, sans-serif" font-size="14" text-anchor="middle" fill="white">📅</text>
    
    <text x="60" y="190" font-family="Arial, sans-serif" font-size="18" fill="#666">Waktu: 15:48 - 15:49</text>
    <circle cx="35" cy="190" r="15" fill="#ffa500" opacity="0.8" />
    <text x="35" y="195" font-family="Arial, sans-serif" font-size="14" text-anchor="middle" fill="white">⏰</text>
    
    <text x="345" y="150" font-family="Arial, sans-serif" font-size="18" font-weight="bold" fill="#6a5acd" text-anchor="end">Detail</text>
    <circle cx="345" cy="130" r="15" fill="#6a5acd" opacity="0.2" />
    <text x="345" y="135" font-family="Arial, sans-serif" font-size="14" text-anchor="middle" fill="#6a5acd">i</text>
    
    <!-- Session 2 -->
    <rect x="20" y="220" width="360" height="110" rx="15" ry="15" fill="#f8f9fa" stroke="#eee" stroke-width="1" />
    <text x="60" y="260" font-family="Arial, sans-serif" font-size="20" font-weight="bold" fill="#333">Durasi: 0h 2m</text>
    <circle cx="35" cy="260" r="15" fill="#4682b4" opacity="0.8" />
    <text x="35" y="265" font-family="Arial, sans-serif" font-size="14" text-anchor="middle" fill="white">⏱️</text>
    
    <text x="60" y="290" font-family="Arial, sans-serif" font-size="18" fill="#666">Tanggal: 2025-04-05</text>
    <circle cx="35" cy="290" r="15" fill="#32cd32" opacity="0.8" />
    <text x="35" y="295" font-family="Arial, sans-serif" font-size="14" text-anchor="middle" fill="white">📅</text>
    
    <text x="60" y="320" font-family="Arial, sans-serif" font-size="18" fill="#666">Waktu: 15:46 - 15:48</text>
    <circle cx="35" cy="320" r="15" fill="#ffa500" opacity="0.8" />
    <text x="35" y="325" font-family="Arial, sans-serif" font-size="14" text-anchor="middle" fill="white">⏰</text>
    
    <text x="345" y="280" font-family="Arial, sans-serif" font-size="18" font-weight="bold" fill="#6a5acd" text-anchor="end">Detail</text>
    <circle cx="345" cy="260" r="15" fill="#6a5acd" opacity="0.2" />
    <text x="345" y="265" font-family="Arial, sans-serif" font-size="14" text-anchor="middle" fill="#6a5acd">i</text>
    
    <!-- Session 3 -->
    <rect x="20" y="350" width="360" height="110" rx="15" ry="15" fill="#f8f9fa" stroke="#eee" stroke-width="1" />
    <text x="60" y="390" font-family="Arial, sans-serif" font-size="20" font-weight="bold" fill="#333">Durasi: 0h 4m</text>
    <circle cx="35" cy="390" r="15" fill="#4682b4" opacity="0.8" />
    <text x="35" y="395" font-family="Arial, sans-serif" font-size="14" text-anchor="middle" fill="white">⏱️</text>
    
    <text x="60" y="420" font-family="Arial, sans-serif" font-size="18" fill="#666">Tanggal: 2025-04-05</text>
    <circle cx="35" cy="420" r="15" fill="#32cd32" opacity="0.8" />
    <text x="35" y="425" font-family="Arial, sans-serif" font-size="14" text-anchor="middle" fill="white">📅</text>
    
    <text x="60" y="450" font-family="Arial, sans-serif" font-size="18" fill="#666">Waktu: 15:41 - 15:45</text>
    <circle cx="35" cy="450" r="15" fill="#ffa500" opacity="0.8" />
    <text x="35" y="455" font-family="Arial, sans-serif" font-size="14" text-anchor="middle" fill="white">⏰</text>
    
    <text x="345" y="410" font-family="Arial, sans-serif" font-size="18" font-weight="bold" fill="#6a5acd" text-anchor="end">Detail</text>
    <circle cx="345" cy="390" r="15" fill="#6a5acd" opacity="0.2" />
    <text x="345" y="395" font-family="Arial, sans-serif" font-size="14" text-anchor="middle" fill="#6a5acd">i</text>
    
    <!-- Session 4 -->
    <rect x="20" y="480" width="360" height="110" rx="15" ry="15" fill="#f8f9fa" stroke="#eee" stroke-width="1" />
    <text x="60" y="520" font-family="Arial, sans-serif" font-size="20" font-weight="bold" fill="#333">Durasi: 0h 1m</text>
    <circle cx="35" cy="520" r="15" fill="#4682b4" opacity="0.8" />
    <text x="35" y="525" font-family="Arial, sans-serif" font-size="14" text-anchor="middle" fill="white">⏱️</text>
    
    <text x="60" y="550" font-family="Arial, sans-serif" font-size="18" fill="#666">Tanggal: 2025-04-05</text>
    <circle cx="35" cy="550" r="15" fill="#32cd32" opacity="0.8" />
    <text x="35" y="555" font-family="Arial, sans-serif" font-size="14" text-anchor="middle" fill="white">📅</text>
    
    <text x="60" y="580" font-family="Arial, sans-serif" font-size="18" fill="#666">Waktu: 15:39 - 15:40</text>
    <circle cx="35" cy="580" r="15" fill="#ffa500" opacity="0.8" />
    <text x="35" y="585" font-family="Arial, sans-serif" font-size="14" text-anchor="middle" fill="white">⏰</text>
  </g>
  
  <!-- Device Navigation Bar -->
  <rect x="0" y="850" width="1600" height="50" fill="#000" />
  <rect x="750" y="865" width="100" height="20" rx="10" ry="10" fill="#333" />
  <circle cx="800" cy="875" r="15" fill="#333" stroke="#444" stroke-width="2" />
  <path d="M750,875 L720,875 M850,875 L880,875" stroke="#444" stroke-width="2" />
  
  <!-- Watermark -->
  <text x="1550" y="885" font-family="Arial, sans-serif" font-size="14" text-anchor="end" fill="#666">Live Push Notification</text>
</svg>